<svg width="534" height="263" viewBox="0 0 534 263" fill="none" xmlns="http://www.w3.org/2000/svg">
<g filter="url(#filter0_d_3680_17851)">
<path d="M110.548 236.502V237.502H111.548H148.148H149.148V236.502V186.652H165.848H166.848V185.652V149.052V148.052H165.848H149.148V26.5016V25.5016H148.148H102.998H102.461L102.164 25.9504L21.314 148.35L21.1484 148.601V148.902V185.652V186.652H22.1484H110.548V236.502ZM205.485 209.036L205.489 209.041C212.866 219.147 221.62 227.095 231.752 232.87L231.758 232.874C241.917 238.563 253.187 241.402 265.547 241.402C277.907 241.402 289.177 238.563 299.335 232.874L299.342 232.87C309.476 227.094 318.132 219.143 325.31 209.034C332.581 198.935 338.176 187.283 342.105 174.089C346.135 160.788 348.147 146.59 348.147 131.502C348.147 116.413 346.135 102.265 342.104 89.0625C338.176 75.7705 332.581 64.0691 325.31 53.9697C318.132 43.8598 309.474 35.9574 299.338 30.2807C289.179 24.4909 277.908 21.6016 265.547 21.6016C253.185 21.6016 241.914 24.4911 231.755 30.2811C221.621 35.9568 212.866 43.8565 205.489 53.9619L205.485 53.9673C198.213 64.0681 192.617 75.7717 188.688 89.0662C184.758 102.267 182.797 116.414 182.797 131.502C182.797 146.589 184.758 160.785 188.688 174.085L188.688 174.087C192.617 187.282 198.213 198.936 205.485 209.036ZM306.446 95.5126L306.447 95.5152C310.009 106.299 311.797 118.292 311.797 131.502C311.797 144.011 310.109 155.71 306.741 166.606C303.382 177.475 298.26 186.22 291.4 192.884C284.606 199.485 276.014 202.802 265.547 202.802C255.184 202.802 246.59 199.488 239.692 192.883C232.832 186.218 227.66 177.472 224.201 166.603C220.834 155.607 219.147 143.908 219.147 131.502C219.147 122.169 220.09 113.242 221.973 104.717L221.974 104.715C223.855 96.1013 226.722 88.4494 230.564 81.7491C234.395 75.0696 239.192 69.8408 244.948 66.0358L244.952 66.0336C250.768 62.1563 257.619 60.2016 265.547 60.2016C275.616 60.2016 284.017 63.3703 290.816 69.6844C297.668 76.0469 302.888 84.6399 306.446 95.5126ZM456.545 236.502V237.502H457.545H494.145H495.145V236.502V186.652H511.845H512.845V185.652V149.052V148.052H511.845H495.145V26.5016V25.5016H494.145H448.995H448.457L448.16 25.9504L367.31 148.35L367.145 148.601V148.902V185.652V186.652H368.145H456.545V236.502ZM66.4311 147.907L110.405 79.8318L110.546 148.048L66.4311 147.907ZM412.427 147.907L456.402 79.8318L456.542 148.048L412.427 147.907Z" stroke="#A5FEFF" stroke-width="2" shape-rendering="crispEdges"/>
</g>
<defs>
<filter id="filter0_d_3680_17851" x="0.148438" y="0.601562" width="533.695" height="261.801" filterUnits="userSpaceOnUse" color-interpolation-filters="sRGB">
<feFlood flood-opacity="0" result="BackgroundImageFix"/>
<feColorMatrix in="SourceAlpha" type="matrix" values="0 0 0 0 0 0 0 0 0 0 0 0 0 0 0 0 0 0 127 0" result="hardAlpha"/>
<feOffset/>
<feGaussianBlur stdDeviation="10"/>
<feComposite in2="hardAlpha" operator="out"/>
<feColorMatrix type="matrix" values="0 0 0 0 0 0 0 0 0 0.988889 0 0 0 0 1 0 0 0 1 0"/>
<feBlend mode="normal" in2="BackgroundImageFix" result="effect1_dropShadow_3680_17851"/>
<feBlend mode="normal" in="SourceGraphic" in2="effect1_dropShadow_3680_17851" result="shape"/>
</filter>
</defs>
</svg>
