<svg width="112" height="84" viewBox="0 0 112 84" fill="none" xmlns="http://www.w3.org/2000/svg">
<path d="M49.0487 76.6337C49.0487 80.4768 45.9332 83.5961 42.0862 83.5961C39.4467 83.5961 37.1478 82.1216 35.9674 79.9543L35.9558 79.9349L2.66829 24.2235L2.61024 24.1268L2.21161 23.4688L2.18452 23.4185C0.911226 21.1467 0.1875 18.5266 0.1875 15.7401C0.1875 7.04762 7.23512 0 15.9276 0C23.3042 0 29.4926 5.07382 31.1993 11.9202L48.7004 74.4509C48.9287 75.1359 49.0525 75.8712 49.0525 76.6337H49.0487Z" fill="#A5FEFF"/>
<path d="M62.9492 76.6337C62.9492 80.4768 66.0647 83.5961 69.9117 83.5961C72.5511 83.5961 74.85 82.1216 76.0304 79.9543L76.042 79.9349L109.33 24.2235L109.388 24.1268L109.786 23.4688L109.813 23.4185C111.087 21.1467 111.81 18.5266 111.81 15.7401C111.81 7.04762 104.763 0 96.0703 0C88.6937 0 82.5053 5.07382 80.7985 11.9202L63.2975 74.4509C63.0692 75.1359 62.9453 75.8712 62.9453 76.6337H62.9492Z" fill="#A5FEFF"/>
<path d="M62.8683 13.8555H49.0207C45.1562 13.8555 42.0234 16.9883 42.0234 20.8528V20.8566C42.0234 24.7212 45.1562 27.854 49.0207 27.854H62.8683C66.7328 27.854 69.8656 24.7212 69.8656 20.8566V20.8528C69.8656 16.9883 66.7328 13.8555 62.8683 13.8555Z" fill="#A5FEFF"/>
</svg>
