<svg width="108" height="38" viewBox="0 0 108 38" fill="none" xmlns="http://www.w3.org/2000/svg">
<g filter="url(#filter0_d_3461_25981)">
<path d="M21.2777 30.2376C21.2777 31.4773 20.2727 32.4836 19.0317 32.4836C18.1802 32.4836 17.4386 32.0079 17.0578 31.3088L17.0541 31.3026L6.3159 13.3307L6.29717 13.2995L6.16858 13.0872L6.15984 13.071C5.74909 12.3381 5.51562 11.4929 5.51562 10.594C5.51562 7.7899 7.78911 5.51642 10.5932 5.51642C12.9728 5.51642 14.9691 7.15318 15.5197 9.36174L21.1653 29.5335C21.239 29.7544 21.279 29.9916 21.279 30.2376H21.2777Z" fill="#A5FEFF"/>
<path d="M25.7649 30.2376C25.7649 31.4773 26.7699 32.4836 28.0109 32.4836C28.8624 32.4836 29.604 32.0079 29.9848 31.3088L29.9885 31.3026L40.7267 13.3307L40.7455 13.2995L40.874 13.0872L40.8828 13.071C41.2935 12.3381 41.527 11.4929 41.527 10.594C41.527 7.7899 39.2535 5.51642 36.4494 5.51642C34.0698 5.51642 32.0735 7.15318 31.5229 9.36174L25.8773 29.5335C25.8036 29.7544 25.7637 29.9916 25.7637 30.2376H25.7649Z" fill="#A5FEFF"/>
<path d="M25.736 9.98596H21.269C20.0223 9.98596 19.0117 10.9966 19.0117 12.2432V12.2445C19.0117 13.4911 20.0223 14.5017 21.269 14.5017H25.736C26.9827 14.5017 27.9933 13.4911 27.9933 12.2445V12.2432C27.9933 10.9966 26.9827 9.98596 25.736 9.98596Z" fill="#A5FEFF"/>
<path d="M59.6264 10.1128C59.8761 10.1128 60.0925 10.1378 60.2757 10.1877C60.4754 10.2377 60.6336 10.3625 60.7501 10.5623C60.8666 10.7454 60.9249 11.045 60.9249 11.4612C60.9249 11.8774 60.8666 12.1853 60.7501 12.3851C60.6336 12.5682 60.4754 12.6847 60.2757 12.7346C60.0759 12.7679 59.8512 12.7846 59.6015 12.7846H55.0071V26.3085C55.0071 26.5915 54.9738 26.8495 54.9072 27.0825C54.8572 27.2989 54.7241 27.4737 54.5077 27.6069C54.3079 27.7401 53.9667 27.8066 53.4839 27.8066C53.0345 27.8066 52.7015 27.7317 52.4851 27.5819C52.2687 27.4487 52.1356 27.274 52.0856 27.0576C52.0357 26.8245 52.0107 26.5665 52.0107 26.2835V12.7846H47.3664C47.1333 12.7846 46.9169 12.7596 46.7171 12.7097C46.5174 12.6597 46.3509 12.5432 46.2178 12.3601C46.1012 12.177 46.043 11.8774 46.043 11.4612C46.043 11.045 46.1012 10.7454 46.2178 10.5623C46.3343 10.3625 46.4924 10.2377 46.6922 10.1877C46.9086 10.1378 47.1333 10.1128 47.3664 10.1128H59.6264Z" fill="#F9F9F9"/>
<path d="M65.6004 27.9565C64.8014 27.9565 64.019 27.8066 63.2533 27.507C62.5042 27.1907 61.8217 26.7496 61.2058 26.1836C60.6065 25.6176 60.1238 24.9518 59.7575 24.1861C59.408 23.4203 59.2332 22.5797 59.2332 21.6641C59.2332 20.7819 59.3996 19.9579 59.7326 19.1921C60.0655 18.4264 60.5233 17.7522 61.1059 17.1696C61.6885 16.587 62.3544 16.1375 63.1035 15.8212C63.8692 15.4883 64.6849 15.3218 65.5505 15.3218C66.7157 15.3218 67.7728 15.6048 68.7216 16.1708C69.6705 16.7201 70.4279 17.4692 70.9939 18.4181C71.5599 19.3669 71.8428 20.4406 71.8428 21.6391C71.8428 22.588 71.6681 23.4536 71.3185 24.236C70.9689 25.0017 70.4945 25.6676 69.8952 26.2336C69.2959 26.7829 68.6218 27.2074 67.8727 27.507C67.1402 27.8066 66.3828 27.9565 65.6004 27.9565ZM65.5505 25.01C66.0998 25.01 66.6242 24.8769 67.1236 24.6105C67.6396 24.3275 68.0558 23.928 68.3721 23.412C68.705 22.896 68.8715 22.2884 68.8715 21.5892C68.8715 20.94 68.7216 20.3657 68.422 19.8663C68.139 19.3669 67.7478 18.9757 67.2484 18.6927C66.749 18.4097 66.1747 18.2682 65.5255 18.2682C64.9096 18.2682 64.352 18.4181 63.8526 18.7177C63.3532 19.0007 62.9537 19.4002 62.654 19.9162C62.371 20.4156 62.2295 20.9816 62.2295 21.6142C62.2295 22.3133 62.3877 22.9209 62.704 23.437C63.0202 23.9364 63.4281 24.3275 63.9275 24.6105C64.4435 24.8769 64.9845 25.01 65.5505 25.01Z" fill="#F9F9F9"/>
<path d="M79.5072 27.8066C78.6915 27.8066 77.9923 27.7234 77.4097 27.557C76.8271 27.3905 76.3527 27.1325 75.9864 26.7829C75.6202 26.4333 75.3455 25.9839 75.1624 25.4345C74.996 24.8686 74.9127 24.2027 74.9127 23.437V12.8498C74.9127 12.5502 74.9377 12.2922 74.9877 12.0758C75.0542 11.8594 75.1874 11.6929 75.3872 11.5764C75.6036 11.4432 75.9365 11.3766 76.3859 11.3766C76.852 11.3766 77.185 11.4432 77.3847 11.5764C77.6011 11.7096 77.7343 11.8927 77.7842 12.1257C77.8508 12.3421 77.8841 12.5835 77.8841 12.8498V23.3371C77.8841 23.6867 77.9091 23.9696 77.959 24.1861C78.0256 24.4025 78.1172 24.5689 78.2337 24.6854C78.3669 24.7853 78.5333 24.8602 78.7331 24.9102C78.9495 24.9435 79.2075 24.9601 79.5072 24.9601C79.8234 24.9601 80.0898 24.9851 80.3062 25.035C80.5392 25.085 80.714 25.2098 80.8305 25.4096C80.9471 25.5927 81.0053 25.9006 81.0053 26.3334C81.0053 26.7995 80.9304 27.1408 80.7806 27.3572C80.6474 27.5569 80.4643 27.6818 80.2313 27.7317C80.0149 27.7817 79.7735 27.8066 79.5072 27.8066ZM73.889 15.7463L76.4609 15.7713L79.9067 15.6714C80.1897 15.6714 80.4394 15.7047 80.6558 15.7713C80.8888 15.8212 81.0719 15.9544 81.2051 16.1708C81.3383 16.3706 81.4048 16.7035 81.4048 17.1696C81.4048 17.6024 81.3383 17.927 81.2051 18.1434C81.0719 18.3598 80.8971 18.5013 80.6807 18.5679C80.4643 18.6178 80.2146 18.6428 79.9316 18.6428L76.5857 18.5929L73.8141 18.6178C73.3979 18.6012 73.1066 18.4847 72.9401 18.2682C72.7903 18.0352 72.7154 17.6607 72.7154 17.1446C72.7154 16.6619 72.807 16.3123 72.9901 16.0959C73.1898 15.8628 73.4895 15.7463 73.889 15.7463Z" fill="#F9F9F9"/>
<path d="M93.504 27.7567C93.0213 27.7567 92.6634 27.6652 92.4303 27.482C92.1973 27.2989 92.0807 27.0492 92.0807 26.733L92.2555 25.909C92.1223 26.1254 91.8976 26.3834 91.5813 26.683C91.2651 26.966 90.8489 27.224 90.3329 27.4571C89.8168 27.6735 89.1926 27.7817 88.4601 27.7817C87.6777 27.7817 86.937 27.6235 86.2378 27.3073C85.5553 26.9743 84.9477 26.5249 84.4151 25.9589C83.899 25.3763 83.4828 24.7187 83.1666 23.9863C82.8669 23.2372 82.7171 22.4382 82.7171 21.5892C82.7171 20.7735 82.8669 20.0078 83.1666 19.292C83.4828 18.5596 83.9073 17.9104 84.44 17.3444C84.9727 16.7784 85.5803 16.3373 86.2628 16.021C86.962 15.6881 87.6944 15.5216 88.4601 15.5216C89.1426 15.5216 89.7169 15.6131 90.183 15.7963C90.6658 15.9794 91.0736 16.2124 91.4065 16.4954C91.7395 16.7617 92.0141 17.0447 92.2305 17.3444L92.0807 16.6203C92.0807 16.254 92.1973 15.9794 92.4303 15.7963C92.6634 15.5965 93.0296 15.4966 93.529 15.4966C93.9951 15.4966 94.328 15.5715 94.5278 15.7213C94.7275 15.8545 94.8524 16.046 94.9023 16.2956C94.9522 16.5287 94.9772 16.795 94.9772 17.0947V26.2336C94.9772 26.5166 94.9522 26.7746 94.9023 27.0076C94.8524 27.2407 94.7192 27.4238 94.5028 27.557C94.303 27.6901 93.9701 27.7567 93.504 27.7567ZM88.9096 24.8602C89.4756 24.8602 89.9833 24.7187 90.4327 24.4357C90.8822 24.1528 91.2401 23.7699 91.5064 23.2871C91.7894 22.7878 91.9309 22.2384 91.9309 21.6391C91.9309 20.9899 91.7894 20.424 91.5064 19.9412C91.2234 19.4585 90.8489 19.0839 90.3828 18.8176C89.9333 18.5346 89.4256 18.3931 88.8596 18.3931C88.2437 18.3931 87.6944 18.5429 87.2117 18.8426C86.7289 19.1255 86.346 19.5167 86.063 20.0161C85.7967 20.4989 85.6635 21.0482 85.6635 21.6641C85.6635 22.2634 85.805 22.8044 86.088 23.2871C86.371 23.7699 86.7539 24.1528 87.2366 24.4357C87.736 24.7187 88.2937 24.8602 88.9096 24.8602Z" fill="#F9F9F9"/>
<path d="M101.777 27.8066C101.161 27.8066 100.612 27.765 100.129 27.6818C99.6632 27.5986 99.2554 27.4571 98.9058 27.2573C98.5729 27.0576 98.2982 26.7912 98.0818 26.4583C97.8654 26.1087 97.699 25.6842 97.5824 25.1848C97.4826 24.6854 97.4326 24.0862 97.4326 23.387V11.5667C97.4326 11.2837 97.4576 11.034 97.5075 10.8176C97.5741 10.5846 97.7073 10.4015 97.907 10.2683C98.1234 10.1185 98.4647 10.0436 98.9308 10.0436C99.3969 10.0436 99.7298 10.1102 99.9296 10.2433C100.146 10.3765 100.279 10.5596 100.329 10.7927C100.396 11.0091 100.429 11.2588 100.429 11.5418V23.2622C100.429 23.5785 100.446 23.8448 100.479 24.0612C100.529 24.261 100.604 24.4274 100.704 24.5606C100.82 24.6771 100.962 24.7604 101.128 24.8103C101.311 24.8602 101.528 24.8852 101.777 24.8852C101.994 24.8852 102.185 24.9102 102.352 24.9601C102.535 25.01 102.676 25.1349 102.776 25.3347C102.893 25.5344 102.951 25.859 102.951 26.3085C102.951 26.7746 102.893 27.1158 102.776 27.3322C102.676 27.5486 102.535 27.6818 102.352 27.7317C102.169 27.7817 101.977 27.8066 101.777 27.8066Z" fill="#F9F9F9"/>
</g>
<defs>
<filter id="filter0_d_3461_25981" x="-3.98" y="-3.98" width="116.429" height="45.96" filterUnits="userSpaceOnUse" color-interpolation-filters="sRGB">
<feFlood flood-opacity="0" result="BackgroundImageFix"/>
<feColorMatrix in="SourceAlpha" type="matrix" values="0 0 0 0 0 0 0 0 0 0 0 0 0 0 0 0 0 0 127 0" result="hardAlpha"/>
<feOffset/>
<feGaussianBlur stdDeviation="2.49"/>
<feComposite in2="hardAlpha" operator="out"/>
<feColorMatrix type="matrix" values="0 0 0 0 0 0 0 0 0 0 0 0 0 0 0 0 0 0 1 0"/>
<feBlend mode="normal" in2="BackgroundImageFix" result="effect1_dropShadow_3461_25981"/>
<feBlend mode="normal" in="SourceGraphic" in2="effect1_dropShadow_3461_25981" result="shape"/>
</filter>
</defs>
</svg>
