<svg width="114" height="160" viewBox="0 0 114 160" fill="none" xmlns="http://www.w3.org/2000/svg">
<path d="M50.0487 90.6493C50.0487 94.4924 46.9332 97.6118 43.0862 97.6118C40.4467 97.6118 38.1478 96.1372 36.9674 93.9699L36.9558 93.9506L3.66829 38.2392L3.61024 38.1424L3.21161 37.4845L3.18452 37.4342C1.91123 35.1624 1.1875 32.5422 1.1875 29.7557C1.1875 21.0632 8.23512 14.0156 16.9276 14.0156C24.3042 14.0156 30.4926 19.0894 32.1993 25.9358L49.7004 88.4665C49.9287 89.1515 50.0525 89.8869 50.0525 90.6493H50.0487Z" fill="#A5FEFF"/>
<path d="M63.9492 90.6493C63.9492 94.4924 67.0647 97.6118 70.9117 97.6118C73.5511 97.6118 75.85 96.1372 77.0304 93.9699L77.042 93.9506L110.33 38.2392L110.388 38.1424L110.786 37.4845L110.813 37.4342C112.087 35.1624 112.81 32.5422 112.81 29.7557C112.81 21.0632 105.763 14.0156 97.0703 14.0156C89.6937 14.0156 83.5053 19.0894 81.7985 25.9358L64.2975 88.4665C64.0692 89.1515 63.9453 89.8869 63.9453 90.6493H63.9492Z" fill="#A5FEFF"/>
<path d="M63.8683 27.8711H50.0207C46.1562 27.8711 43.0234 31.0039 43.0234 34.8684V34.8723C43.0234 38.7368 46.1562 41.8696 50.0207 41.8696H63.8683C67.7328 41.8696 70.8656 38.7368 70.8656 34.8723V34.8684C70.8656 31.0039 67.7328 27.8711 63.8683 27.8711Z" fill="#A5FEFF"/>
<path d="M28.2656 120.252C28.7493 120.252 29.1685 120.301 29.5233 120.397C29.9102 120.494 30.2166 120.736 30.4423 121.123C30.6681 121.478 30.7809 122.058 30.7809 122.864C30.7809 123.67 30.6681 124.267 30.4423 124.654C30.2166 125.009 29.9102 125.234 29.5233 125.331C29.1363 125.396 28.7009 125.428 28.2172 125.428H19.3167V151.21C19.3167 151.759 19.2522 152.258 19.1233 152.71C19.0265 153.129 18.7685 153.468 18.3493 153.726C17.9623 153.984 17.3012 154.113 16.366 154.113C15.4953 154.113 14.8504 153.968 14.4312 153.677C14.0119 153.419 13.754 153.081 13.6572 152.661C13.5605 152.21 13.5121 151.71 13.5121 151.162V125.428H4.51488C4.06341 125.428 3.64419 125.38 3.25721 125.283C2.87023 125.186 2.54775 124.96 2.28977 124.606C2.06403 124.251 1.95116 123.67 1.95116 122.864C1.95116 122.058 2.06403 121.478 2.28977 121.123C2.5155 120.736 2.82186 120.494 3.20884 120.397C3.62806 120.301 4.06341 120.252 4.51488 120.252H28.2656ZM39.8386 154.403C38.2907 154.403 36.775 154.113 35.2916 153.532C33.8405 152.919 32.5183 152.065 31.3251 150.968C30.1642 149.872 29.229 148.582 28.5195 147.099C27.8423 145.615 27.5037 143.987 27.5037 142.213C27.5037 140.504 27.8262 138.908 28.4712 137.424C29.1161 135.941 30.0029 134.635 31.1316 133.506C32.2603 132.377 33.5502 131.507 35.0014 130.894C36.4848 130.249 38.065 129.927 39.7419 129.927C41.9992 129.927 44.047 130.475 45.8851 131.571C47.7233 132.635 49.1905 134.087 50.287 135.925C51.3834 137.763 51.9316 139.843 51.9316 142.165C51.9316 144.003 51.593 145.68 50.9158 147.195C50.2386 148.679 49.3195 149.969 48.1586 151.065C46.9977 152.129 45.6916 152.952 44.2405 153.532C42.8216 154.113 41.3543 154.403 39.8386 154.403ZM39.7419 148.695C40.806 148.695 41.8219 148.437 42.7893 147.921C43.789 147.373 44.5952 146.599 45.2079 145.599C45.8529 144.599 46.1753 143.422 46.1753 142.068C46.1753 140.81 45.8851 139.698 45.3047 138.73C44.7564 137.763 43.9986 137.005 43.0312 136.457C42.0637 135.909 40.9512 135.634 39.6935 135.634C38.5003 135.634 37.42 135.925 36.4526 136.505C35.4851 137.053 34.7112 137.827 34.1307 138.827C33.5825 139.794 33.3084 140.891 33.3084 142.116C33.3084 143.471 33.6147 144.648 34.2274 145.648C34.8402 146.615 35.6302 147.373 36.5977 147.921C37.5974 148.437 38.6454 148.695 39.7419 148.695ZM66.7792 154.113C65.1991 154.113 63.8446 153.951 62.716 153.629C61.5873 153.306 60.6682 152.807 59.9587 152.129C59.2493 151.452 58.7172 150.581 58.3625 149.517C58.04 148.421 57.8787 147.131 57.8787 145.648V125.138C57.8787 124.557 57.9271 124.057 58.0239 123.638C58.1529 123.219 58.4108 122.897 58.7978 122.671C59.217 122.413 59.862 122.284 60.7327 122.284C61.6356 122.284 62.2806 122.413 62.6676 122.671C63.0868 122.929 63.3448 123.283 63.4415 123.735C63.5705 124.154 63.635 124.622 63.635 125.138V145.454C63.635 146.131 63.6834 146.679 63.7801 147.099C63.9091 147.518 64.0865 147.84 64.3122 148.066C64.5702 148.26 64.8927 148.405 65.2797 148.501C65.6989 148.566 66.1987 148.598 66.7792 148.598C67.3919 148.598 67.9079 148.647 68.3271 148.743C68.7786 148.84 69.1172 149.082 69.3429 149.469C69.5687 149.824 69.6815 150.42 69.6815 151.259C69.6815 152.162 69.5364 152.823 69.2462 153.242C68.9882 153.629 68.6335 153.871 68.182 153.968C67.7628 154.064 67.2952 154.113 66.7792 154.113ZM55.8955 130.749L60.8778 130.797L67.5532 130.604C68.1014 130.604 68.5851 130.668 69.0043 130.797C69.4558 130.894 69.8105 131.152 70.0685 131.571C70.3265 131.958 70.4555 132.603 70.4555 133.506C70.4555 134.345 70.3265 134.973 70.0685 135.393C69.8105 135.812 69.4719 136.086 69.0527 136.215C68.6335 136.312 68.1498 136.36 67.6015 136.36L61.1197 136.263L55.7504 136.312C54.9442 136.279 54.3798 136.054 54.0574 135.634C53.7671 135.183 53.622 134.457 53.622 133.458C53.622 132.523 53.7994 131.845 54.1541 131.426C54.5411 130.975 55.1215 130.749 55.8955 130.749ZM93.8944 154.016C92.9592 154.016 92.2659 153.839 91.8144 153.484C91.3629 153.129 91.1372 152.645 91.1372 152.033L91.4758 150.436C91.2178 150.856 90.7825 151.355 90.1698 151.936C89.5571 152.484 88.7509 152.984 87.7512 153.435C86.7515 153.855 85.5422 154.064 84.1233 154.064C82.6076 154.064 81.1726 153.758 79.8181 153.145C78.496 152.5 77.3189 151.63 76.287 150.533C75.2873 149.404 74.4811 148.131 73.8684 146.712C73.2879 145.261 72.9977 143.713 72.9977 142.068C72.9977 140.488 73.2879 139.004 73.8684 137.618C74.4811 136.199 75.3034 134.941 76.3353 133.845C77.3673 132.748 78.5443 131.894 79.8665 131.281C81.2209 130.636 82.6398 130.314 84.1233 130.314C85.4454 130.314 86.558 130.491 87.4609 130.846C88.3961 131.2 89.1862 131.652 89.8312 132.2C90.4761 132.716 91.0082 133.264 91.4274 133.845L91.1372 132.442C91.1372 131.732 91.3629 131.2 91.8144 130.846C92.2659 130.459 92.9753 130.265 93.9428 130.265C94.8457 130.265 95.4907 130.41 95.8777 130.701C96.2647 130.959 96.5065 131.329 96.6033 131.813C96.7 132.265 96.7484 132.781 96.7484 133.361V151.065C96.7484 151.613 96.7 152.113 96.6033 152.565C96.5065 153.016 96.2485 153.371 95.8293 153.629C95.4423 153.887 94.7974 154.016 93.8944 154.016ZM84.994 148.405C86.0904 148.405 87.074 148.131 87.9446 147.582C88.8153 147.034 89.5087 146.292 90.0246 145.357C90.5729 144.39 90.847 143.326 90.847 142.165C90.847 140.907 90.5729 139.811 90.0246 138.875C89.4764 137.94 88.7509 137.215 87.8479 136.699C86.9772 136.15 85.9936 135.876 84.8972 135.876C83.704 135.876 82.6398 136.167 81.7046 136.747C80.7695 137.295 80.0277 138.053 79.4795 139.021C78.9636 139.956 78.7056 141.02 78.7056 142.213C78.7056 143.374 78.9797 144.422 79.5279 145.357C80.0761 146.292 80.8178 147.034 81.753 147.582C82.7205 148.131 83.8008 148.405 84.994 148.405ZM109.922 154.113C108.729 154.113 107.664 154.032 106.729 153.871C105.826 153.71 105.036 153.435 104.359 153.048C103.714 152.661 103.182 152.145 102.763 151.501C102.344 150.823 102.021 150.001 101.795 149.034C101.602 148.066 101.505 146.905 101.505 145.551V122.235C101.505 121.687 101.553 121.203 101.65 120.784C101.779 120.333 102.037 119.978 102.424 119.72C102.843 119.43 103.504 119.285 104.407 119.285C105.31 119.285 105.955 119.414 106.342 119.672C106.762 119.93 107.02 120.284 107.116 120.736C107.245 121.155 107.31 121.639 107.31 122.187V145.309C107.31 145.922 107.342 146.438 107.406 146.857C107.503 147.244 107.648 147.566 107.842 147.824C108.068 148.05 108.342 148.211 108.664 148.308C109.019 148.405 109.438 148.453 109.922 148.453C110.341 148.453 110.712 148.501 111.034 148.598C111.389 148.695 111.663 148.937 111.857 149.324C112.082 149.711 112.195 150.34 112.195 151.21C112.195 152.113 112.082 152.774 111.857 153.194C111.663 153.613 111.389 153.871 111.034 153.968C110.68 154.064 110.309 154.113 109.922 154.113Z" fill="#F9F9F9"/>
</svg>
