<svg width="133" height="57" viewBox="0 0 133 57" fill="none" xmlns="http://www.w3.org/2000/svg">
<path d="M45.8433 46.4375H42.4183L42.2031 46.6527V55.6548L42.4183 55.87H42.6976L42.9129 55.6548V52.0924H45.8159C47.9267 52.0924 48.6731 50.5585 48.6731 49.2443C48.6777 47.541 47.565 46.4375 45.8433 46.4375ZM45.8205 51.4102H42.9129V47.106H45.8433C47.391 47.106 47.9451 48.2095 47.9451 49.2443C47.9451 49.9403 47.7482 50.499 47.3727 50.8698C47.0155 51.2316 46.5027 51.4102 45.8205 51.4102ZM57.5882 55.4625L54.557 51.8772H54.8546C56.5809 51.8772 57.6111 50.8607 57.6111 49.1573C57.6111 47.5044 56.5076 46.4375 54.8043 46.4375H51.3151L51.0999 46.6527V55.6548L51.3151 55.87H51.5944L51.8097 55.6548V51.8772H53.6412L56.9472 55.7967L57.1074 55.87H57.4234L57.6386 55.6548L57.5882 55.4625ZM51.8097 47.1197H54.8043C56.0909 47.1197 56.8922 47.9073 56.8922 49.1711C56.8922 50.4852 56.1734 51.2087 54.8684 51.2087H51.8097V47.1197ZM60.7706 46.6573V55.6456L60.5554 55.8608H60.276L60.0608 55.6456V46.6573L60.276 46.4421H60.5554L60.7706 46.6573ZM70.2123 53.5073C70.1436 54.3361 69.7086 55.0092 68.9576 55.4533C68.3624 55.8059 67.5977 56.0028 66.7964 56.0028H66.7506C65.3632 55.9891 63.2661 55.2473 63.1928 53.2555L63.4034 52.999H63.6736L63.8888 53.2051C63.93 54.2216 64.8412 55.2885 66.7598 55.3068H66.8605C68.6875 55.3068 69.4293 54.2994 69.5071 53.4386C69.6399 51.923 68.6463 51.5429 66.7735 51.3735C65.322 51.2407 63.3897 51.0713 63.3897 48.9238C63.3897 46.9915 65.1434 46.3047 66.6453 46.3047C67.236 46.3047 68.0922 46.3917 68.8065 46.8129C69.5392 47.2434 69.9375 47.8981 69.9879 48.7681L69.7773 49.0291H69.4979L69.2873 48.8277C69.2598 48.3743 68.9851 46.9869 66.6499 46.9869C65.3815 46.9869 64.104 47.5868 64.104 48.9238C64.104 50.3341 65.0976 50.5219 66.7323 50.6684L66.8788 50.6821C68.5913 50.847 70.4137 51.2178 70.2123 53.5073ZM80.7437 46.6527V55.6548L80.5285 55.87H80.2492L80.034 55.6548V47.8203L76.9844 52.7701L76.8013 52.8708H76.5861L76.4029 52.7701L73.3534 47.8203V55.6548L73.1382 55.87H72.8589L72.6437 55.6548V46.6527L72.8589 46.4375H73.216L73.3992 46.5382L76.6914 51.923L79.9745 46.5382L80.1576 46.4375H80.5285L80.7437 46.6527ZM87.58 46.5657L87.3831 46.6481L87.5754 46.5474L87.3786 46.4146H87.1038L86.9069 46.5474L83.1705 55.5999L83.3674 55.8929H83.6788L83.8757 55.7601L84.9197 53.2005H89.549L90.5929 55.7601L90.7898 55.8929H91.1149L91.3118 55.5999L87.58 46.5657ZM85.2082 52.5228L87.2412 47.5273L89.2742 52.5228H85.2082Z" fill="white" stroke="white" stroke-width="0.233333"/>
<path d="M33.8976 50.8125H0V53.2347H33.8976V50.8125Z" fill="url(#paint0_linear_3324_25710)"/>
<path d="M132.258 50.8125H98.75V53.2347H132.258V50.8125Z" fill="url(#paint1_linear_3324_25710)"/>
<path d="M0.0546875 31.9971V26.5344V26.5024H3.68576H6.96883V29.0849H6.93677H4.92206H3.14086V31.6353H5.07316H6.48804H6.5201V32.8854V34.2178H6.48804H5.10521H3.14086V36.5805V36.9148H5.77373H7.04209H7.07414V39.4973H3.91012H0.0546875V39.4652V33.6638V31.9971ZM9.43685 31.9971V26.5665V26.4978H11.0349H12.5185V26.5665V32.0062V33.6729V36.8278C12.5185 36.8827 12.5413 36.9102 12.5871 36.9102H15.0689H15.8015H16.3006H16.3693V39.4927H13.2053H9.44143V39.4103V33.6638V31.9971H9.43685ZM23.0637 31.9971V26.5665V26.4978H24.6617H26.1453V26.5665V32.0062V33.6729V36.8278C26.1453 36.8827 26.1682 36.9102 26.2139 36.9102H28.6957H29.4283H29.9274H29.9961V39.4927H26.8321H23.0682V39.4103V33.6638V31.9971H23.0637ZM34.9459 33.6638V39.4607V39.4927H33.4715H31.8643V39.4469V33.6638V31.9971V26.5665V26.4978H33.4074H34.9505V26.5482V31.9971V33.6638H34.9459ZM46.0589 35.8479C46.0589 36.1684 46.0131 36.4798 45.917 36.7729C45.8208 37.0659 45.6972 37.3406 45.5415 37.5879C45.3858 37.8397 45.2072 38.0641 45.0012 38.261C44.7951 38.4625 44.5799 38.6273 44.3601 38.7601C44.1358 38.8929 43.8976 39.0119 43.6367 39.1127C43.3757 39.2134 43.078 39.2912 42.7438 39.3554C42.4095 39.4149 42.034 39.4652 41.6128 39.4973C41.1915 39.5294 40.7062 39.5477 40.1613 39.5477C39.9049 39.5477 39.6759 39.5431 39.479 39.5385C39.2821 39.5339 39.0394 39.5248 38.7647 39.5156C38.6777 39.5156 38.5358 39.5065 38.348 39.4881C38.1603 39.4698 37.9542 39.4561 37.7299 39.4469V39.4149V33.6638V31.9971V26.6169V26.5665C37.8718 26.5436 38.0458 26.5253 38.2381 26.5161C38.4304 26.507 38.6411 26.4932 38.8609 26.4841C39.1035 26.4612 39.3966 26.452 39.7354 26.452C40.0743 26.452 40.3994 26.452 40.7107 26.452C41.0999 26.452 41.5029 26.4795 41.9287 26.5344C42.35 26.5894 42.7346 26.6672 43.078 26.768C43.2795 26.8229 43.5176 26.9191 43.7923 27.0519C44.0671 27.1846 44.3372 27.3724 44.5936 27.6196C44.8501 27.8669 45.0699 28.1783 45.253 28.5629C45.4362 28.9475 45.5277 29.4191 45.5277 29.9869C45.5277 30.5776 45.3629 31.1271 45.0378 31.6353C44.7081 32.1482 44.2319 32.4962 43.5954 32.6839V32.7159C43.916 32.7846 44.2273 32.9037 44.5204 33.0823C44.8134 33.2608 45.0744 33.4806 45.3034 33.7508C45.5323 34.0164 45.7155 34.3231 45.8528 34.6757C45.9902 35.0237 46.0589 35.4129 46.0589 35.8342V35.8479ZM42.5606 30.2662C42.5606 29.8541 42.4324 29.5428 42.176 29.323C41.9196 29.1078 41.5807 28.9979 41.1595 28.9979C41.0816 28.9979 40.9855 29.0025 40.8664 29.007C40.7474 29.0116 40.6512 29.0208 40.5734 29.0345V31.5666C40.6604 31.5758 40.7474 31.585 40.8298 31.585C40.9122 31.585 40.9855 31.585 41.0542 31.585C41.1549 31.585 41.2556 31.5804 41.3609 31.5666C41.4663 31.5575 41.5899 31.5209 41.7364 31.4659C41.9241 31.3972 42.1073 31.269 42.2859 31.0721C42.4645 30.8798 42.5515 30.6142 42.5515 30.28V30.2662H42.5606ZM42.9269 35.4312C42.9269 35.0878 42.8262 34.8039 42.6293 34.5796C42.4324 34.3552 42.2035 34.2087 41.947 34.1308C41.8234 34.0988 41.6906 34.0713 41.5487 34.0484C41.4021 34.0255 41.2694 34.0164 41.1503 34.0164C41.0954 34.0164 41.0038 34.0209 40.8847 34.0255C40.7611 34.0301 40.6604 34.0347 40.5871 34.0347V36.8827C40.5871 36.9056 40.5917 36.9148 40.6054 36.9148C40.6833 36.924 40.7748 36.9331 40.8802 36.9331C40.9855 36.9331 41.0862 36.9331 41.1869 36.9331C41.3289 36.9331 41.4846 36.9194 41.6448 36.8919C41.8051 36.8644 41.9654 36.8095 42.121 36.7316C42.3225 36.6446 42.5057 36.4935 42.6797 36.2875C42.8537 36.0814 42.9361 35.8021 42.9361 35.445V35.4312H42.9269ZM48.2751 31.9971V26.5848V26.5528C48.417 26.5299 48.5956 26.5161 48.8062 26.5024C49.0169 26.4932 49.2321 26.4795 49.4564 26.4703C49.5434 26.4703 49.6579 26.4658 49.7999 26.4612C49.9372 26.4566 50.0837 26.452 50.2348 26.4429C50.386 26.4383 50.5325 26.4337 50.6836 26.4337C50.8347 26.4337 50.9629 26.4337 51.0774 26.4337C51.6085 26.4337 52.0893 26.4612 52.5197 26.507C52.9501 26.5527 53.3485 26.6306 53.7285 26.7313C54.0079 26.8092 54.3009 26.9282 54.6123 27.0885C54.9236 27.2487 55.2075 27.4731 55.4685 27.7616C55.7295 28.0501 55.9447 28.4072 56.1187 28.8376C56.2927 29.2635 56.3752 29.7809 56.3752 30.3807C56.3752 30.7379 56.3339 31.0675 56.2561 31.3743C56.1783 31.6811 56.0821 31.9559 55.9631 32.1985C55.844 32.4412 55.7204 32.6564 55.5784 32.8396C55.4411 33.0227 55.3037 33.1647 55.1709 33.2654C55.0152 33.3982 54.8595 33.5218 54.7039 33.6317C54.5482 33.7416 54.4154 33.8195 54.3055 33.8653V33.9156C54.3375 33.9614 54.3879 34.0301 54.4474 34.1217C54.507 34.2178 54.6352 34.4056 54.8229 34.6895C55.0106 34.9733 55.2854 35.3763 55.638 35.9074C55.9951 36.434 56.4805 37.1529 57.1032 38.0641C57.1902 38.1969 57.2864 38.3388 57.3871 38.4899C57.4878 38.641 57.584 38.783 57.6801 38.9158C57.7763 39.0486 57.8541 39.1676 57.9228 39.2638C57.9915 39.3645 58.0327 39.4286 58.0556 39.4652V39.4973H56.3385H55.1068H54.5894C54.1223 38.7418 53.6232 37.9359 53.0921 37.0796C52.5609 36.2234 52.0252 35.3626 51.494 34.4971H51.1964V35.3122V39.4607V39.4927H49.7449H48.2797V39.4607V33.6638V31.9971H48.2751ZM53.3897 30.6234C53.3897 30.1151 53.2432 29.7213 52.9547 29.4375C52.6662 29.1536 52.2725 29.0162 51.7734 29.0162C51.6268 29.0162 51.5169 29.0208 51.4299 29.0254C51.3475 29.0299 51.2651 29.0391 51.1873 29.0482V32.3451C51.2422 32.3542 51.3109 32.3634 51.3887 32.3634C51.4666 32.3634 51.5444 32.3634 51.6223 32.3634C51.8466 32.3634 52.0481 32.3313 52.2312 32.2718C52.4144 32.2123 52.5792 32.1298 52.7212 32.0291C52.8769 31.9284 53.028 31.759 53.1699 31.5254C53.3164 31.2873 53.3851 30.9943 53.3851 30.6371V30.6234H53.3897ZM71.9984 32.9312C71.9984 33.8881 71.8289 34.7765 71.4901 35.6052C71.1513 36.434 70.6751 37.1483 70.0661 37.7527C69.4571 38.3572 68.7336 38.8334 67.9002 39.1768C67.0669 39.5202 66.1603 39.6942 65.185 39.6942C64.2188 39.6942 63.3168 39.5202 62.4834 39.1768C61.65 38.8334 60.9266 38.3617 60.3176 37.7619C59.7086 37.1621 59.2278 36.4523 58.8752 35.6373C58.5272 34.8222 58.3487 33.9477 58.3487 33.0136C58.3487 32.0795 58.5227 31.2049 58.8752 30.3899C59.2278 29.5748 59.7132 28.8651 60.3313 28.2653C60.9541 27.6654 61.6913 27.1938 62.5384 26.8504C63.3855 26.507 64.3058 26.333 65.2948 26.333C66.2702 26.333 67.1676 26.4978 67.9872 26.8321C68.8023 27.1663 69.5074 27.6288 70.1027 28.224C70.698 28.8193 71.1604 29.5153 71.4947 30.3166C71.8289 31.1179 71.9938 31.9833 71.9938 32.9174V32.9312H71.9984ZM68.8527 32.9815C68.8527 32.4504 68.7657 31.9467 68.5871 31.4796C68.4085 31.0126 68.1612 30.6097 67.8361 30.2708C67.5156 29.932 67.131 29.6618 66.6868 29.4649C66.2427 29.268 65.7573 29.1673 65.2353 29.1673C64.6904 29.1673 64.1913 29.2635 63.7334 29.4603C63.2801 29.6527 62.8818 29.9228 62.5521 30.2617C62.2178 30.6005 61.9614 31.008 61.7783 31.4796C61.5951 31.9513 61.5035 32.4641 61.5035 33.0227C61.5035 33.5676 61.5951 34.0713 61.7783 34.5384C61.9614 35.0054 62.2178 35.4129 62.5429 35.7563C62.8726 36.0998 63.2618 36.3745 63.7197 36.5714C64.173 36.7729 64.6813 36.869 65.2353 36.869C65.7802 36.869 66.2747 36.7683 66.7281 36.5714C67.1768 36.3699 67.5568 36.0952 67.8682 35.7472C68.1796 35.3992 68.4222 34.9871 68.5917 34.5246C68.7657 34.0576 68.8481 33.5539 68.8481 33.009V32.9815H68.8527ZM81.4126 29.0849H79.1781H78.1432H78.0608V26.5024H81.9758H83.7432H87.8414V29.0849H87.7727H86.7745H84.4896V33.6592V39.4652V39.4973H82.9557H81.408V39.4652V33.6546V29.0849H81.4126ZM102.059 32.9312C102.059 33.8881 101.889 34.7765 101.551 35.6052C101.212 36.434 100.736 37.1483 100.127 37.7527C99.5175 38.3572 98.7941 38.8334 97.9607 39.1768C97.1274 39.5202 96.2207 39.6942 95.2454 39.6942C94.2793 39.6942 93.3772 39.5202 92.5439 39.1768C91.7105 38.8334 90.9871 38.3617 90.3781 37.7619C89.7691 37.1621 89.2883 36.4523 88.9357 35.6373C88.5877 34.8222 88.4091 33.9477 88.4091 33.0136C88.4091 32.0795 88.5831 31.2049 88.9357 30.3899C89.2883 29.5748 89.7737 28.8651 90.3918 28.2653C91.0145 27.6654 91.7517 27.1938 92.5988 26.8504C93.4505 26.507 94.3663 26.333 95.3553 26.333C96.3306 26.333 97.2281 26.4978 98.0477 26.8321C98.8628 27.1663 99.5679 27.6288 100.163 28.224C100.758 28.8193 101.221 29.5153 101.555 30.3166C101.889 31.1179 102.054 31.9833 102.054 32.9174V32.9312H102.059ZM98.9086 32.9815C98.9086 32.4504 98.8216 31.9467 98.643 31.4796C98.4644 31.0126 98.2171 30.6097 97.892 30.2708C97.5715 29.932 97.1869 29.6618 96.7427 29.4649C96.2986 29.268 95.8132 29.1673 95.2912 29.1673C94.7463 29.1673 94.2472 29.2635 93.7893 29.4603C93.336 29.6527 92.9377 29.9228 92.608 30.2617C92.2737 30.6005 92.0173 31.008 91.8342 31.4796C91.651 31.9513 91.5594 32.4641 91.5594 33.0227C91.5594 33.5676 91.651 34.0713 91.8342 34.5384C92.0173 35.0054 92.2737 35.4129 92.5988 35.7563C92.9285 36.0998 93.3177 36.3745 93.7756 36.5714C94.2289 36.7729 94.7372 36.869 95.2912 36.869C95.8361 36.869 96.3306 36.7683 96.7839 36.5714C97.2373 36.3745 97.6127 36.0952 97.9241 35.7472C98.2355 35.3992 98.4781 34.9871 98.6476 34.5246C98.8216 34.0576 98.904 33.5539 98.904 33.009V32.9815H98.9086ZM106.39 29.0849H104.156H103.121H103.039V26.5024H106.954H108.721H112.819V29.0849H112.751H111.752H109.467V33.6592V39.4652V39.4973H107.934H106.386V39.4652V33.6546V29.0849H106.39ZM115.553 37.6291C115.351 38.1191 115.182 38.5266 115.045 38.8608C114.907 39.1951 114.825 39.3874 114.802 39.4424V39.4927H113.268H111.633V39.4469C111.642 39.4149 111.684 39.3279 111.748 39.1905C111.816 39.0531 111.94 38.7784 112.123 38.3663C112.306 37.9542 112.563 37.3773 112.888 36.6263C113.218 35.8754 113.657 34.8863 114.211 33.6546L117.476 26.2734H117.911L121.144 33.6546C121.689 34.8863 122.124 35.88 122.453 36.6263C122.783 37.3773 123.035 37.9542 123.213 38.3663C123.392 38.7784 123.511 39.0531 123.571 39.1905C123.63 39.3279 123.667 39.4149 123.68 39.4469V39.4973H122.082H120.214V39.4469C120.191 39.392 120.113 39.1951 119.981 38.8654C119.848 38.5312 119.688 38.1191 119.495 37.6337H115.553V37.6291ZM118.602 35.1657V35.1336C118.438 34.7124 118.296 34.346 118.177 34.0347C118.062 33.7233 117.961 33.4532 117.879 33.2288C117.797 32.9998 117.732 32.8075 117.687 32.6518C117.641 32.4962 117.604 32.3634 117.568 32.2535H117.549C117.517 32.3634 117.476 32.4962 117.426 32.6518C117.375 32.8075 117.307 32.9998 117.224 33.2288C117.142 33.4577 117.036 33.7279 116.917 34.0347C116.794 34.346 116.652 34.7124 116.482 35.1336V35.1657H118.602ZM125.201 31.9971V26.5665V26.4978H126.799H128.282V26.5665V32.0062V33.6729V36.8278C128.282 36.8827 128.305 36.9102 128.351 36.9102H130.833H131.565H132.064H132.133V39.4927H128.969H125.205V39.4103V33.6638V31.9971H125.201Z" fill="white"/>
<path fill-rule="evenodd" clip-rule="evenodd" d="M89.4414 4.70711C85.0319 8.44807 70.6313 14.7486 67.4673 23.4898C67.3986 23.8881 66.2172 24.1262 65.0588 24.0713C64.2437 24.0346 63.4424 23.8561 63.0441 23.4852C60.1685 14.6433 46.1296 8.42976 41.8438 4.55143C42.178 4.18054 41.83 4.56516 42.1643 4.19427C48.3549 8.67244 58.3965 12.45 63.2364 20.0556C60.0678 10.0507 43.7944 9.12575 43.3914 2.69697C44.3392 1.63467 43.3548 2.73818 44.3026 1.67588C44.4904 2.2574 44.7376 2.78397 45.0352 3.26933C44.9299 2.7565 44.9253 2.27113 45.0032 1.81324C45.0581 1.49272 45.1497 1.18136 45.2733 0.87457C45.397 0.563205 45.5481 0.274734 45.7221 0L45.7175 0.0137367L45.69 0.265576C45.5664 0.462469 45.4611 0.663941 45.3787 0.865412C45.2962 1.07146 45.2321 1.30041 45.1909 1.53851C45.0581 2.32608 45.1818 3.20065 45.6809 4.16222C45.8045 4.31332 45.9373 4.45985 46.0746 4.60179C45.5298 3.6448 45.397 2.76566 45.5298 1.97351C45.5756 1.68961 45.658 1.4103 45.7679 1.13557C45.8778 0.856254 46.0151 0.599836 46.1662 0.357154V0.370891L46.1433 0.595257C46.0334 0.769255 45.9373 0.947832 45.864 1.13099C45.7908 1.31414 45.7312 1.51562 45.6946 1.73082C45.5069 2.8435 45.8915 4.1668 47.2972 5.65952C52.2836 9.31348 61.3544 9.57448 65.0588 15.2477C65.1412 15.3714 65.219 15.495 65.2923 15.6278C68.5662 9.43711 77.5271 9.31806 83.0447 6.20441C84.7664 4.77121 85.3799 3.37007 85.357 2.09714C85.3525 1.84072 85.3204 1.59804 85.2655 1.36909C85.2105 1.14472 85.1327 0.920359 85.0319 0.700572L85.0411 0.434996V0.421259C85.1785 0.728045 85.2929 1.05315 85.3708 1.39199C85.4532 1.73082 85.499 2.06966 85.5081 2.40392C85.5265 3.29223 85.2517 4.23548 84.5466 5.19705C84.7343 5.05053 84.9129 4.89484 85.0869 4.73458C85.7371 3.76843 85.9935 2.83434 85.9752 1.95519C85.9706 1.66672 85.934 1.39656 85.8699 1.14015C85.8103 0.888307 85.7188 0.636467 85.6089 0.389207L85.618 0.091578V0.0778413C85.7737 0.421259 85.8973 0.787571 85.9889 1.16762C86.0805 1.54767 86.1309 1.92314 86.14 2.30319C86.1492 2.80687 86.0759 3.32428 85.9019 3.85085C86.3919 3.23728 86.7902 2.54129 87.0741 1.74456C87.9899 2.83892 87.0375 1.69877 87.9533 2.79313C87.3397 9.24022 70.874 9.60653 67.5039 19.6572C72.6918 12.3218 82.8753 8.55338 89.1346 4.32706C89.4506 4.72085 89.1209 4.32706 89.4414 4.70711ZM65.0542 9.19443C67.4581 9.19443 69.4133 7.24382 69.4133 4.83532C69.4133 2.42682 67.4627 0.476206 65.0542 0.476206C62.6503 0.476206 60.6951 2.42682 60.6951 4.83532C60.6997 7.23924 62.6503 9.19443 65.0542 9.19443Z" fill="white"/>
<defs>
<linearGradient id="paint0_linear_3324_25710" x1="0.000869991" y1="52.0233" x2="33.8964" y2="52.0233" gradientUnits="userSpaceOnUse">
<stop stop-color="#00A8DE"/>
<stop offset="0.2" stop-color="#333391"/>
<stop offset="0.4" stop-color="#E91388"/>
<stop offset="0.6" stop-color="#EB2D2E"/>
<stop offset="0.8" stop-color="#FDE92B"/>
<stop offset="1" stop-color="#009E54"/>
</linearGradient>
<linearGradient id="paint1_linear_3324_25710" x1="98.7489" y1="52.0233" x2="132.258" y2="52.0233" gradientUnits="userSpaceOnUse">
<stop stop-color="#009E54"/>
<stop offset="0.2" stop-color="#FDE92B"/>
<stop offset="0.4" stop-color="#EB2D2E"/>
<stop offset="0.6" stop-color="#E91388"/>
<stop offset="0.8" stop-color="#333391"/>
<stop offset="1" stop-color="#00A8DE"/>
</linearGradient>
</defs>
</svg>
